<svg xmlns="http://www.w3.org/2000/svg" width="100" height="100" viewBox="0 0 100 100">

	<path 
		d="M 30.5 9.811 A 2.5 2.5 90 0 0 28 12.311 L 28 22.311 A 2.5 2.5 90 0 0 30.5 24.811 L 33 24.811 L 33 29.889 C 27.4415 30.284 23 34.9085 23 40.563 L 23 79.069 C 23 84.981 27.8395 89.811 33.752 89.811 L 67.248 89.811 C 73.1605 89.811 78 84.981 78 79.069 L 78 40.563 C 78 34.9085 73.5585 30.2855 68 29.889 L 68 24.811 L 70.5 24.811 A 2.5 2.5 90 0 0 73 22.311 L 73 12.311 A 2.5 2.5 90 0 0 70.5 9.811 L 30.5 9.811 Z M 33 14.811 L 68 14.811 L 68 19.811 L 33 19.811 L 33 14.811 Z M 38 24.811 L 63 24.811 L 63 29.811 L 38 29.811 L 38 24.811 Z M 33.752 34.811 L 35.5 34.811 L 65.5 34.811 L 67.248 34.811 C 70.477 34.811 73 37.3345 73 40.563 L 73 79.069 C 73 82.2975 70.477 84.811 67.248 84.811 L 33.752 84.811 C 30.523 84.811 28 82.2975 28 79.069 L 28 40.563 C 28 37.3345 30.523 34.811 33.752 34.811 Z" 
		fill="#7952b3"
	/>

	<path 
		fill-rule="evenodd" 
		fill="#7952b3"
		d="M 61.35 45.1 A 3.15 3.15 90 1 0 61.35 51.4 A 3.15 3.15 90 0 0 61.35 45.1 Z M 56.1 48.25 A 5.25 5.25 90 1 1 57.3663 51.6688 L 43.2585 58.2208 A 5.2479 5.2479 90 0 1 43.2585 61.3792 L 57.3663 67.9312 A 5.25 5.25 90 1 1 56.3415 69.7708 L 42.2337 63.2188 A 5.25 5.25 90 1 1 42.2337 56.3812 L 56.3415 49.8292 A 5.25 5.25 90 0 1 56.1 48.25 Z M 38.25 56.65 A 3.15 3.15 90 1 0 38.25 62.95 A 3.15 3.15 90 0 0 38.25 56.65 Z M 61.35 68.2 A 3.15 3.15 90 1 0 61.35 74.5 A 3.15 3.15 90 0 0 61.35 68.2 Z"
		/>

	<path d="M 61.35 45.1 A 3.15 3.15 90 1 0 61.35 51.4 A 3.15 3.15 90 0 0 61.35 45.1 Z" stroke="#fcd66f" fill="#fcd66f" />
	<path d="M 38.25 56.65 A 3.15 3.15 90 1 0 38.25 62.95 A 3.15 3.15 90 0 0 38.25 56.65 Z" stroke="#34afaa" fill="#34afaa" />
	<path d="M 61.35 68.2 A 3.15 3.15 90 1 0 61.35 74.5 A 3.15 3.15 90 0 0 61.35 68.2 Z" stroke="#e95c60" fill="#e95c60"/>
</svg>